<svg data-v-423bf9ae="" xmlns="http://www.w3.org/2000/svg" viewBox="0 0 411.0144990745059 163" class="iconAbove"><!----><!----><!----><g data-v-423bf9ae="" id="cd5fc428-104c-4670-b7d1-7ec47491c4d2" fill="white" transform="matrix(4.83091784472063,0,0,4.83091784472063,-0.6763218732464793,87.25120668018907)"><path d="M4.47 13.05L3.51 13.05L3.51 9.06L3.51 9.06Q2.52 7.53 1.69 6.11L1.69 6.11L1.69 6.11Q0.85 4.69 0.14 3.35L0.14 3.35L1.25 3.35L1.25 3.35Q1.83 4.58 2.54 5.84L2.54 5.84L2.54 5.84Q3.25 7.11 4.02 8.26L4.02 8.26L4.02 8.26Q4.76 7.11 5.47 5.84L5.47 5.84L5.47 5.84Q6.19 4.58 6.79 3.35L6.79 3.35L7.83 3.35L7.83 3.35Q7.08 4.68 6.26 6.11L6.26 6.11L6.26 6.11Q5.43 7.55 4.47 9.03L4.47 9.03L4.47 13.05ZM8.74 9.42L8.74 9.42L8.74 9.42Q8.74 8.47 9.01 7.76L9.01 7.76L9.01 7.76Q9.28 7.06 9.72 6.58L9.72 6.58L9.72 6.58Q10.16 6.10 10.73 5.87L10.73 5.87L10.73 5.87Q11.30 5.64 11.90 5.64L11.90 5.64L11.90 5.64Q13.23 5.64 14.02 6.51L14.02 6.51L14.02 6.51Q14.81 7.38 14.81 9.18L14.81 9.18L14.81 9.18Q14.81 9.30 14.80 9.41L14.80 9.41L14.80 9.41Q14.80 9.52 14.78 9.62L14.78 9.62L9.70 9.62L9.70 9.62Q9.74 10.95 10.36 11.66L10.36 11.66L10.36 11.66Q10.98 12.38 12.32 12.38L12.32 12.38L12.32 12.38Q13.06 12.38 13.50 12.24L13.50 12.24L13.50 12.24Q13.93 12.10 14.13 12.00L14.13 12.00L14.29 12.78L14.29 12.78Q14.10 12.89 13.56 13.05L13.56 13.05L13.56 13.05Q13.02 13.20 12.29 13.20L12.29 13.20L12.29 13.20Q11.34 13.20 10.67 12.92L10.67 12.92L10.67 12.92Q10.00 12.64 9.56 12.14L9.56 12.14L9.56 12.14Q9.13 11.63 8.93 10.94L8.93 10.94L8.93 10.94Q8.74 10.25 8.74 9.42ZM9.73 8.85L13.87 8.85L13.87 8.85Q13.85 7.71 13.34 7.08L13.34 7.08L13.34 7.08Q12.84 6.45 11.91 6.45L11.91 6.45L11.91 6.45Q11.42 6.45 11.04 6.65L11.04 6.65L11.04 6.65Q10.65 6.85 10.37 7.17L10.37 7.17L10.37 7.17Q10.08 7.50 9.92 7.94L9.92 7.94L9.92 7.94Q9.76 8.37 9.73 8.85L9.73 8.85ZM19.12 12.39L19.12 12.39L19.12 12.39Q19.66 12.39 20.05 12.36L20.05 12.36L20.05 12.36Q20.45 12.32 20.73 12.26L20.73 12.26L20.73 9.72L20.73 9.72Q20.58 9.65 20.24 9.57L20.24 9.57L20.24 9.57Q19.91 9.49 19.32 9.49L19.32 9.49L19.32 9.49Q18.98 9.49 18.62 9.54L18.62 9.54L18.62 9.54Q18.26 9.59 17.95 9.75L17.95 9.75L17.95 9.75Q17.64 9.91 17.44 10.19L17.44 10.19L17.44 10.19Q17.25 10.47 17.25 10.93L17.25 10.93L17.25 10.93Q17.25 11.34 17.38 11.62L17.38 11.62L17.38 11.62Q17.51 11.90 17.76 12.07L17.76 12.07L17.76 12.07Q18.00 12.24 18.35 12.31L18.35 12.31L18.35 12.31Q18.69 12.39 19.12 12.39ZM19.04 5.64L19.04 5.64L19.04 5.64Q19.75 5.64 20.25 5.84L20.25 5.84L20.25 5.84Q20.75 6.05 21.06 6.41L21.06 6.41L21.06 6.41Q21.36 6.76 21.50 7.25L21.50 7.25L21.50 7.25Q21.64 7.74 21.64 8.32L21.64 8.32L21.64 12.88L21.64 12.88Q21.50 12.92 21.24 12.97L21.24 12.97L21.24 12.97Q20.97 13.02 20.62 13.08L20.62 13.08L20.62 13.08Q20.27 13.13 19.85 13.17L19.85 13.17L19.85 13.17Q19.42 13.20 18.97 13.20L18.97 13.20L18.97 13.20Q18.40 13.20 17.91 13.08L17.91 13.08L17.91 13.08Q17.43 12.95 17.07 12.68L17.07 12.68L17.07 12.68Q16.72 12.40 16.51 11.98L16.51 11.98L16.51 11.98Q16.31 11.55 16.31 10.93L16.31 10.93L16.31 10.93Q16.31 10.35 16.53 9.93L16.53 9.93L16.53 9.93Q16.76 9.51 17.16 9.23L17.16 9.23L17.16 9.23Q17.57 8.96 18.13 8.83L18.13 8.83L18.13 8.83Q18.69 8.71 19.35 8.71L19.35 8.71L19.35 8.71Q19.54 8.71 19.76 8.73L19.76 8.73L19.76 8.73Q19.98 8.75 20.18 8.79L20.18 8.79L20.18 8.79Q20.38 8.82 20.53 8.86L20.53 8.86L20.53 8.86Q20.68 8.89 20.73 8.92L20.73 8.92L20.73 8.47L20.73 8.47Q20.73 8.09 20.68 7.74L20.68 7.74L20.68 7.74Q20.62 7.38 20.43 7.09L20.43 7.09L20.43 7.09Q20.24 6.80 19.90 6.63L19.90 6.63L19.90 6.63Q19.56 6.45 19.00 6.45L19.00 6.45L19.00 6.45Q18.20 6.45 17.81 6.57L17.81 6.57L17.81 6.57Q17.42 6.68 17.23 6.75L17.23 6.75L17.11 5.95L17.11 5.95Q17.35 5.84 17.84 5.74L17.84 5.74L17.84 5.74Q18.34 5.64 19.04 5.64ZM26.43 5.67L26.43 5.67L26.43 5.67Q26.88 5.67 27.28 5.74L27.28 5.74L27.28 5.74Q27.68 5.81 27.83 5.88L27.83 5.88L27.65 6.66L27.65 6.66Q27.54 6.61 27.20 6.54L27.20 6.54L27.20 6.54Q26.85 6.48 26.29 6.48L26.29 6.48L26.29 6.48Q25.70 6.48 25.35 6.57L25.35 6.57L25.35 6.57Q24.99 6.65 24.88 6.71L24.88 6.71L24.88 13.05L23.97 13.05L23.97 6.15L23.97 6.15Q24.32 5.99 24.93 5.83L24.93 5.83L24.93 5.83Q25.55 5.67 26.43 5.67ZM34.90 3.26L34.90 3.26L34.90 3.26Q36.96 3.26 37.97 4.05L37.97 4.05L37.97 4.05Q38.98 4.83 38.98 6.27L38.98 6.27L38.98 6.27Q38.98 7.10 38.68 7.68L38.68 7.68L38.68 7.68Q38.39 8.26 37.84 8.62L37.84 8.62L37.84 8.62Q37.30 8.97 36.51 9.13L36.51 9.13L36.51 9.13Q35.71 9.30 34.72 9.30L34.72 9.30L33.40 9.30L33.40 13.05L32.45 13.05L32.45 3.53L32.45 3.53Q32.96 3.39 33.64 3.32L33.64 3.32L33.64 3.32Q34.31 3.26 34.90 3.26ZM34.94 4.09L34.94 4.09L34.94 4.09Q34.41 4.09 34.04 4.12L34.04 4.12L34.04 4.12Q33.67 4.16 33.40 4.19L33.40 4.19L33.40 8.47L34.61 8.47L34.61 8.47Q35.38 8.47 36.00 8.38L36.00 8.38L36.00 8.38Q36.62 8.29 37.07 8.04L37.07 8.04L37.07 8.04Q37.51 7.80 37.74 7.36L37.74 7.36L37.74 7.36Q37.98 6.93 37.98 6.26L37.98 6.26L37.98 6.26Q37.98 5.61 37.72 5.19L37.72 5.19L37.72 5.19Q37.46 4.77 37.04 4.53L37.04 4.53L37.04 4.53Q36.61 4.28 36.06 4.19L36.06 4.19L36.06 4.19Q35.52 4.09 34.94 4.09ZM43.15 5.67L43.15 5.67L43.15 5.67Q43.60 5.67 44.00 5.74L44.00 5.74L44.00 5.74Q44.39 5.81 44.55 5.88L44.55 5.88L44.37 6.66L44.37 6.66Q44.25 6.61 43.91 6.54L43.91 6.54L43.91 6.54Q43.57 6.48 43.01 6.48L43.01 6.48L43.01 6.48Q42.42 6.48 42.06 6.57L42.06 6.57L42.06 6.57Q41.71 6.65 41.59 6.71L41.59 6.71L41.59 13.05L40.68 13.05L40.68 6.15L40.68 6.15Q41.03 5.99 41.65 5.83L41.65 5.83L41.65 5.83Q42.27 5.67 43.15 5.67ZM52.09 9.44L52.09 9.44L52.09 9.44Q52.09 10.29 51.85 10.99L51.85 10.99L51.85 10.99Q51.60 11.69 51.16 12.18L51.16 12.18L51.16 12.18Q50.72 12.67 50.12 12.94L50.12 12.94L50.12 12.94Q49.52 13.22 48.79 13.22L48.79 13.22L48.79 13.22Q48.06 13.22 47.46 12.94L47.46 12.94L47.46 12.94Q46.86 12.67 46.42 12.18L46.42 12.18L46.42 12.18Q45.98 11.69 45.73 10.99L45.73 10.99L45.73 10.99Q45.49 10.29 45.49 9.44L45.49 9.44L45.49 9.44Q45.49 8.58 45.73 7.88L45.73 7.88L45.73 7.88Q45.98 7.18 46.42 6.68L46.42 6.68L46.42 6.68Q46.86 6.19 47.46 5.92L47.46 5.92L47.46 5.92Q48.06 5.64 48.79 5.64L48.79 5.64L48.79 5.64Q49.52 5.64 50.12 5.92L50.12 5.92L50.12 5.92Q50.72 6.19 51.16 6.68L51.16 6.68L51.16 6.68Q51.60 7.18 51.85 7.88L51.85 7.88L51.85 7.88Q52.09 8.58 52.09 9.44ZM51.13 9.44L51.13 9.44L51.13 9.44Q51.13 8.08 50.50 7.27L50.50 7.27L50.50 7.27Q49.87 6.47 48.79 6.47L48.79 6.47L48.79 6.47Q47.71 6.47 47.08 7.27L47.08 7.27L47.08 7.27Q46.45 8.08 46.45 9.44L46.45 9.44L46.45 9.44Q46.45 10.79 47.08 11.59L47.08 11.59L47.08 11.59Q47.71 12.39 48.79 12.39L48.79 12.39L48.79 12.39Q49.87 12.39 50.50 11.59L50.50 11.59L50.50 11.59Q51.13 10.79 51.13 9.44ZM58.79 12.68L58.79 12.21L58.79 12.21Q58.70 12.28 58.53 12.37L58.53 12.37L58.53 12.37Q58.37 12.46 58.12 12.56L58.12 12.56L58.12 12.56Q57.88 12.66 57.56 12.72L57.56 12.72L57.56 12.72Q57.25 12.78 56.85 12.78L56.85 12.78L56.85 12.78Q56.22 12.78 55.64 12.59L55.64 12.59L55.64 12.59Q55.05 12.39 54.61 11.97L54.61 11.97L54.61 11.97Q54.17 11.55 53.90 10.88L53.90 10.88L53.90 10.88Q53.63 10.22 53.63 9.27L53.63 9.27L53.63 9.27Q53.63 8.50 53.87 7.84L53.87 7.84L53.87 7.84Q54.11 7.18 54.55 6.70L54.55 6.70L54.55 6.70Q54.99 6.22 55.63 5.94L55.63 5.94L55.63 5.94Q56.27 5.67 57.06 5.67L57.06 5.67L57.06 5.67Q58.07 5.67 58.68 5.80L58.68 5.80L58.68 5.80Q59.29 5.94 59.68 6.06L59.68 6.06L59.68 12.67L59.68 12.67Q59.68 14.29 58.84 14.99L58.84 14.99L58.84 14.99Q58.00 15.68 56.31 15.68L56.31 15.68L56.31 15.68Q55.61 15.68 55.04 15.57L55.04 15.57L55.04 15.57Q54.47 15.47 54.07 15.33L54.07 15.33L54.25 14.50L54.25 14.50Q54.59 14.66 55.17 14.77L55.17 14.77L55.17 14.77Q55.75 14.88 56.34 14.88L56.34 14.88L56.34 14.88Q57.62 14.88 58.21 14.38L58.21 14.38L58.21 14.38Q58.79 13.89 58.79 12.68L58.79 12.68ZM58.77 11.35L58.77 6.69L58.77 6.69Q58.53 6.62 58.16 6.56L58.16 6.56L58.16 6.56Q57.78 6.50 57.08 6.50L57.08 6.50L57.08 6.50Q56.49 6.50 56.04 6.70L56.04 6.70L56.04 6.70Q55.58 6.90 55.26 7.27L55.26 7.27L55.26 7.27Q54.94 7.64 54.77 8.16L54.77 8.16L54.77 8.16Q54.60 8.67 54.60 9.28L54.60 9.28L54.60 9.28Q54.60 10.00 54.80 10.51L54.80 10.51L54.80 10.51Q54.99 11.02 55.31 11.34L55.31 11.34L55.31 11.34Q55.62 11.66 56.03 11.81L56.03 11.81L56.03 11.81Q56.43 11.96 56.85 11.96L56.85 11.96L56.85 11.96Q57.47 11.96 57.98 11.77L57.98 11.77L57.98 11.77Q58.49 11.59 58.77 11.35L58.77 11.35ZM64.55 5.67L64.55 5.67L64.55 5.67Q65.00 5.67 65.40 5.74L65.40 5.74L65.40 5.74Q65.80 5.81 65.95 5.88L65.95 5.88L65.77 6.66L65.77 6.66Q65.66 6.61 65.32 6.54L65.32 6.54L65.32 6.54Q64.97 6.48 64.41 6.48L64.41 6.48L64.41 6.48Q63.83 6.48 63.47 6.57L63.47 6.57L63.47 6.57Q63.11 6.65 63 6.71L63 6.71L63 13.05L62.09 13.05L62.09 6.15L62.09 6.15Q62.44 5.99 63.06 5.83L63.06 5.83L63.06 5.83Q63.67 5.67 64.55 5.67ZM66.89 9.42L66.89 9.42L66.89 9.42Q66.89 8.47 67.17 7.76L67.17 7.76L67.17 7.76Q67.44 7.06 67.88 6.58L67.88 6.58L67.88 6.58Q68.32 6.10 68.89 5.87L68.89 5.87L68.89 5.87Q69.45 5.64 70.06 5.64L70.06 5.64L70.06 5.64Q71.39 5.64 72.18 6.51L72.18 6.51L72.18 6.51Q72.97 7.38 72.97 9.18L72.97 9.18L72.97 9.18Q72.97 9.30 72.96 9.41L72.96 9.41L72.96 9.41Q72.95 9.52 72.94 9.62L72.94 9.62L67.86 9.62L67.86 9.62Q67.90 10.95 68.52 11.66L68.52 11.66L68.52 11.66Q69.13 12.38 70.48 12.38L70.48 12.38L70.48 12.38Q71.22 12.38 71.65 12.24L71.65 12.24L71.65 12.24Q72.09 12.10 72.28 12.00L72.28 12.00L72.45 12.78L72.45 12.78Q72.25 12.89 71.72 13.05L71.72 13.05L71.72 13.05Q71.18 13.20 70.45 13.20L70.45 13.20L70.45 13.20Q69.50 13.20 68.82 12.92L68.82 12.92L68.82 12.92Q68.15 12.64 67.72 12.14L67.72 12.14L67.72 12.14Q67.28 11.63 67.09 10.94L67.09 10.94L67.09 10.94Q66.89 10.25 66.89 9.42ZM67.89 8.85L72.03 8.85L72.03 8.85Q72.00 7.71 71.50 7.08L71.50 7.08L71.50 7.08Q70.99 6.45 70.07 6.45L70.07 6.45L70.07 6.45Q69.58 6.45 69.19 6.65L69.19 6.65L69.19 6.65Q68.81 6.85 68.52 7.17L68.52 7.17L68.52 7.17Q68.24 7.50 68.08 7.94L68.08 7.94L68.08 7.94Q67.91 8.37 67.89 8.85L67.89 8.85ZM76.48 12.40L76.48 12.40L76.48 12.40Q77.27 12.40 77.78 12.14L77.78 12.14L77.78 12.14Q78.29 11.89 78.29 11.27L78.29 11.27L78.29 11.27Q78.29 10.98 78.20 10.77L78.20 10.77L78.20 10.77Q78.11 10.56 77.90 10.39L77.90 10.39L77.90 10.39Q77.69 10.22 77.34 10.07L77.34 10.07L77.34 10.07Q77 9.91 76.50 9.70L76.50 9.70L76.50 9.70Q76.09 9.53 75.73 9.36L75.73 9.36L75.73 9.36Q75.36 9.18 75.08 8.95L75.08 8.95L75.08 8.95Q74.80 8.72 74.63 8.40L74.63 8.40L74.63 8.40Q74.47 8.08 74.47 7.62L74.47 7.62L74.47 7.62Q74.47 6.73 75.13 6.19L75.13 6.19L75.13 6.19Q75.80 5.64 76.96 5.64L76.96 5.64L76.96 5.64Q77.70 5.64 78.18 5.77L78.18 5.77L78.18 5.77Q78.67 5.89 78.86 5.99L78.86 5.99L78.65 6.80L78.65 6.80Q78.48 6.72 78.08 6.58L78.08 6.58L78.08 6.58Q77.69 6.44 76.92 6.44L76.92 6.44L76.92 6.44Q76.61 6.44 76.33 6.50L76.33 6.50L76.33 6.50Q76.06 6.57 75.85 6.70L75.85 6.70L75.85 6.70Q75.64 6.83 75.52 7.04L75.52 7.04L75.52 7.04Q75.39 7.24 75.39 7.53L75.39 7.53L75.39 7.53Q75.39 7.83 75.50 8.04L75.50 8.04L75.50 8.04Q75.61 8.25 75.83 8.41L75.83 8.41L75.83 8.41Q76.05 8.57 76.36 8.71L76.36 8.71L76.36 8.71Q76.68 8.85 77.08 9.02L77.08 9.02L77.08 9.02Q77.50 9.18 77.89 9.36L77.89 9.36L77.89 9.36Q78.27 9.53 78.57 9.78L78.57 9.78L78.57 9.78Q78.86 10.02 79.04 10.37L79.04 10.37L79.04 10.37Q79.23 10.71 79.23 11.23L79.23 11.23L79.23 11.23Q79.23 12.21 78.49 12.71L78.49 12.71L78.49 12.71Q77.76 13.22 76.48 13.22L76.48 13.22L76.48 13.22Q75.53 13.22 75.03 13.05L75.03 13.05L75.03 13.05Q74.52 12.89 74.35 12.81L74.35 12.81L74.59 11.98L74.59 11.98Q74.63 12.01 74.77 12.07L74.77 12.07L74.77 12.07Q74.91 12.14 75.15 12.21L75.15 12.21L75.15 12.21Q75.39 12.29 75.72 12.35L75.72 12.35L75.72 12.35Q76.05 12.40 76.48 12.40ZM82.47 12.40L82.47 12.40L82.47 12.40Q83.26 12.40 83.77 12.14L83.77 12.14L83.77 12.14Q84.28 11.89 84.28 11.27L84.28 11.27L84.28 11.27Q84.28 10.98 84.19 10.77L84.19 10.77L84.19 10.77Q84.10 10.56 83.89 10.39L83.89 10.39L83.89 10.39Q83.68 10.22 83.34 10.07L83.34 10.07L83.34 10.07Q82.99 9.91 82.49 9.70L82.49 9.70L82.49 9.70Q82.08 9.53 81.72 9.36L81.72 9.36L81.72 9.36Q81.35 9.18 81.07 8.95L81.07 8.95L81.07 8.95Q80.79 8.72 80.63 8.40L80.63 8.40L80.63 8.40Q80.46 8.08 80.46 7.62L80.46 7.62L80.46 7.62Q80.46 6.73 81.12 6.19L81.12 6.19L81.12 6.19Q81.79 5.64 82.95 5.64L82.95 5.64L82.95 5.64Q83.69 5.64 84.17 5.77L84.17 5.77L84.17 5.77Q84.66 5.89 84.85 5.99L84.85 5.99L84.64 6.80L84.64 6.80Q84.48 6.72 84.08 6.58L84.08 6.58L84.08 6.58Q83.68 6.44 82.91 6.44L82.91 6.44L82.91 6.44Q82.60 6.44 82.33 6.50L82.33 6.50L82.33 6.50Q82.05 6.57 81.84 6.70L81.84 6.70L81.84 6.70Q81.63 6.83 81.51 7.04L81.51 7.04L81.51 7.04Q81.38 7.24 81.38 7.53L81.38 7.53L81.38 7.53Q81.38 7.83 81.49 8.04L81.49 8.04L81.49 8.04Q81.61 8.25 81.82 8.41L81.82 8.41L81.82 8.41Q82.04 8.57 82.36 8.71L82.36 8.71L82.36 8.71Q82.67 8.85 83.08 9.02L83.08 9.02L83.08 9.02Q83.50 9.18 83.88 9.36L83.88 9.36L83.88 9.36Q84.27 9.53 84.56 9.78L84.56 9.78L84.56 9.78Q84.85 10.02 85.04 10.37L85.04 10.37L85.04 10.37Q85.22 10.71 85.22 11.23L85.22 11.23L85.22 11.23Q85.22 12.21 84.48 12.71L84.48 12.71L84.48 12.71Q83.75 13.22 82.47 13.22L82.47 13.22L82.47 13.22Q81.52 13.22 81.02 13.05L81.02 13.05L81.02 13.05Q80.51 12.89 80.35 12.81L80.35 12.81L80.58 11.98L80.58 11.98Q80.63 12.01 80.77 12.07L80.77 12.07L80.77 12.07Q80.91 12.14 81.14 12.21L81.14 12.21L81.14 12.21Q81.38 12.29 81.71 12.35L81.71 12.35L81.71 12.35Q82.04 12.40 82.47 12.40Z"></path></g><!----><g data-v-423bf9ae="" id="d44c2579-80bc-421c-a5ad-2ee84daacc19" transform="matrix(1.066793128417187,0,0,1.066793128417187,152.90696255057517,-8.576825435607994)" stroke="none" fill="white"><path d="M13.572 36.355a3.616 3.616 0 0 0-3.615 3.616v21.694a3.614 3.614 0 0 0 3.615 3.615 3.615 3.615 0 0 0 3.616-3.615V39.971a3.617 3.617 0 0 0-3.616-3.616zm12.053-15.667a3.615 3.615 0 0 0-3.615 3.616v53.029a3.614 3.614 0 0 0 3.615 3.615 3.615 3.615 0 0 0 3.616-3.615V24.304a3.617 3.617 0 0 0-3.616-3.616zM37.677 8.636a3.616 3.616 0 0 0-3.616 3.616v77.133a3.615 3.615 0 0 0 7.232 0V12.252a3.617 3.617 0 0 0-3.616-3.616zm12.052 21.092a3.616 3.616 0 0 0-3.616 3.615v34.951a3.615 3.615 0 0 0 7.231 0V33.343a3.616 3.616 0 0 0-3.615-3.615zM61.78 8.636a3.616 3.616 0 0 0-3.615 3.616v77.133a3.615 3.615 0 0 0 7.23 0V12.252a3.615 3.615 0 0 0-3.615-3.616zm12.053 18.078a3.616 3.616 0 0 0-3.615 3.616v40.976a3.616 3.616 0 1 0 7.23 0V30.33a3.617 3.617 0 0 0-3.615-3.616zm12.052 10.244a3.617 3.617 0 0 0-3.616 3.616v20.489a3.616 3.616 0 0 0 7.231-.001V40.574a3.617 3.617 0 0 0-3.615-3.616z"></path></g><!----></svg>