<svg data-v-fde0c5aa="" xmlns="http://www.w3.org/2000/svg" viewBox="0 0 300 300" class="icon"><!----><defs data-v-fde0c5aa=""><!----></defs><rect data-v-fde0c5aa="" fill="#8F56FF" x="0" y="0" width="300px" height="300px" class="logo-background-square"></rect><!----><defs data-v-fde0c5aa=""><!----></defs><g data-v-fde0c5aa="" id="1ed26bb9-08a7-484d-85e5-e973b38d184a" fill="#00E2D9" stroke="none" transform="matrix(2.607716536130902,0,0,2.607716536130902,20.322149869654144,17.47976082957606)"><path d="M13.572 36.355a3.616 3.616 0 0 0-3.615 3.616v21.694a3.614 3.614 0 0 0 3.615 3.615 3.615 3.615 0 0 0 3.616-3.615V39.971a3.617 3.617 0 0 0-3.616-3.616zm12.053-15.667a3.615 3.615 0 0 0-3.615 3.616v53.029a3.614 3.614 0 0 0 3.615 3.615 3.615 3.615 0 0 0 3.616-3.615V24.304a3.617 3.617 0 0 0-3.616-3.616zM37.677 8.636a3.616 3.616 0 0 0-3.616 3.616v77.133a3.615 3.615 0 0 0 7.232 0V12.252a3.617 3.617 0 0 0-3.616-3.616zm12.052 21.092a3.616 3.616 0 0 0-3.616 3.615v34.951a3.615 3.615 0 0 0 7.231 0V33.343a3.616 3.616 0 0 0-3.615-3.615zM61.78 8.636a3.616 3.616 0 0 0-3.615 3.616v77.133a3.615 3.615 0 0 0 7.23 0V12.252a3.615 3.615 0 0 0-3.615-3.616zm12.053 18.078a3.616 3.616 0 0 0-3.615 3.616v40.976a3.616 3.616 0 1 0 7.23 0V30.33a3.617 3.617 0 0 0-3.615-3.616zm12.052 10.244a3.617 3.617 0 0 0-3.616 3.616v20.489a3.616 3.616 0 0 0 7.231-.001V40.574a3.617 3.617 0 0 0-3.615-3.616z"></path></g><!----></svg>